<?xml version="1.0" encoding="UTF-8"?>
<svg id="Layer_2" data-name="Layer 2" xmlns="http://www.w3.org/2000/svg" viewBox="0 0 109.08 129.8">
  <defs>
    <style>
      .cls-1 {
        fill: #f15a22;
      }
    </style>
  </defs>
  <g id="Layer_1-2" data-name="Layer 1">
    <path class="cls-1" d="M31.59,70.69c14.62-1.15,30.45.69,45.19-.08,17.8,1.26,31.08,15.43,32.06,33.12.26,4.77.37,11.96,0,16.66-.43,5.42-3.99,8.98-9.41,9.41H9.68c-5.52-.43-8.98-3.88-9.41-9.41-.54-6.89-.4-18.74,1.45-25.3,3.75-13.26,16.11-23.32,29.87-24.4ZM31.87,76.14c-14.95,1.58-25.32,13.32-26.12,28.15-.24,4.44-.44,11.77,0,16.08.18,1.79,1,3.23,2.81,3.73l90.6.24c2.48-.22,3.93-1.43,4.22-3.96.47-4.17.25-12.04.01-16.38-.84-14.94-12.03-27-27.15-27.94s-29.83.6-44.37.08Z"/>
    <path class="cls-1" d="M52.86.05c25.33-1.41,42.63,25.96,30.65,48.37-9.83,18.4-34.7,23-50.5,9.23C10.84,38.33,23.53,1.68,52.86.05ZM53.41,5.51c-21.8.89-33.9,26.23-20.78,43.81,11.83,15.85,36.61,14.07,45.98-3.34,10.1-18.77-3.95-41.33-25.19-40.47Z"/>
  </g>
</svg>